<mxfile host="app.diagrams.net" modified="2021-03-05T08:29:44.130Z" agent="5.0 (Windows NT 10.0; Win64; x64) AppleWebKit/537.36 (KHTML, like Gecko) Chrome/88.0.4324.190 Safari/537.36" etag="BnhhHiFfkODBM5D2wqn0" version="14.4.4" type="github">
  <diagram id="CojYsEq6J5Tc0MAuRY-2" name="Page-1">
    <mxGraphModel dx="1422" dy="762" grid="1" gridSize="10" guides="1" tooltips="1" connect="1" arrows="1" fold="1" page="1" pageScale="1" pageWidth="827" pageHeight="1169" math="0" shadow="0">
      <root>
        <mxCell id="0" />
        <mxCell id="1" parent="0" />
        <mxCell id="euQNAumdBL3FPEThwucR-26" style="edgeStyle=orthogonalEdgeStyle;rounded=0;orthogonalLoop=1;jettySize=auto;html=1;entryX=0.5;entryY=0;entryDx=0;entryDy=0;" edge="1" parent="1" source="euQNAumdBL3FPEThwucR-1" target="euQNAumdBL3FPEThwucR-3">
          <mxGeometry relative="1" as="geometry" />
        </mxCell>
        <mxCell id="euQNAumdBL3FPEThwucR-1" value="后台推送" style="rounded=0;whiteSpace=wrap;html=1;" vertex="1" parent="1">
          <mxGeometry x="200" y="150" width="120" height="60" as="geometry" />
        </mxCell>
        <mxCell id="euQNAumdBL3FPEThwucR-27" style="edgeStyle=orthogonalEdgeStyle;rounded=0;orthogonalLoop=1;jettySize=auto;html=1;exitX=1;exitY=0.5;exitDx=0;exitDy=0;" edge="1" parent="1" source="euQNAumdBL3FPEThwucR-3" target="euQNAumdBL3FPEThwucR-4">
          <mxGeometry relative="1" as="geometry" />
        </mxCell>
        <mxCell id="euQNAumdBL3FPEThwucR-29" style="edgeStyle=orthogonalEdgeStyle;rounded=0;orthogonalLoop=1;jettySize=auto;html=1;entryX=0.5;entryY=0;entryDx=0;entryDy=0;" edge="1" parent="1" source="euQNAumdBL3FPEThwucR-3" target="euQNAumdBL3FPEThwucR-25">
          <mxGeometry relative="1" as="geometry">
            <Array as="points">
              <mxPoint x="170" y="260" />
            </Array>
          </mxGeometry>
        </mxCell>
        <mxCell id="euQNAumdBL3FPEThwucR-3" value="是否定时" style="rhombus;whiteSpace=wrap;html=1;" vertex="1" parent="1">
          <mxGeometry x="220" y="240" width="80" height="40" as="geometry" />
        </mxCell>
        <mxCell id="euQNAumdBL3FPEThwucR-38" style="edgeStyle=orthogonalEdgeStyle;rounded=0;orthogonalLoop=1;jettySize=auto;html=1;entryX=0.5;entryY=0;entryDx=0;entryDy=0;" edge="1" parent="1" source="euQNAumdBL3FPEThwucR-4" target="euQNAumdBL3FPEThwucR-8">
          <mxGeometry relative="1" as="geometry">
            <Array as="points">
              <mxPoint x="680" y="340" />
            </Array>
          </mxGeometry>
        </mxCell>
        <mxCell id="euQNAumdBL3FPEThwucR-4" value="设置定时推送" style="rounded=0;whiteSpace=wrap;html=1;" vertex="1" parent="1">
          <mxGeometry x="320" y="310" width="120" height="60" as="geometry" />
        </mxCell>
        <mxCell id="euQNAumdBL3FPEThwucR-30" style="edgeStyle=orthogonalEdgeStyle;rounded=0;orthogonalLoop=1;jettySize=auto;html=1;entryX=0.5;entryY=0;entryDx=0;entryDy=0;" edge="1" parent="1" source="euQNAumdBL3FPEThwucR-6" target="euQNAumdBL3FPEThwucR-7">
          <mxGeometry relative="1" as="geometry" />
        </mxCell>
        <mxCell id="euQNAumdBL3FPEThwucR-6" value="增加任务" style="rounded=0;whiteSpace=wrap;html=1;" vertex="1" parent="1">
          <mxGeometry x="820" y="170" width="120" height="60" as="geometry" />
        </mxCell>
        <mxCell id="euQNAumdBL3FPEThwucR-7" value="存入数据库" style="rounded=0;whiteSpace=wrap;html=1;" vertex="1" parent="1">
          <mxGeometry x="820" y="290" width="120" height="60" as="geometry" />
        </mxCell>
        <mxCell id="euQNAumdBL3FPEThwucR-31" style="edgeStyle=orthogonalEdgeStyle;rounded=0;orthogonalLoop=1;jettySize=auto;html=1;entryX=0.5;entryY=0;entryDx=0;entryDy=0;" edge="1" parent="1" source="euQNAumdBL3FPEThwucR-8" target="euQNAumdBL3FPEThwucR-19">
          <mxGeometry relative="1" as="geometry" />
        </mxCell>
        <mxCell id="euQNAumdBL3FPEThwucR-8" value="修改任务" style="rounded=0;whiteSpace=wrap;html=1;" vertex="1" parent="1">
          <mxGeometry x="620" y="520" width="120" height="60" as="geometry" />
        </mxCell>
        <mxCell id="euQNAumdBL3FPEThwucR-35" value="" style="edgeStyle=orthogonalEdgeStyle;rounded=0;orthogonalLoop=1;jettySize=auto;html=1;" edge="1" parent="1" source="euQNAumdBL3FPEThwucR-9" target="euQNAumdBL3FPEThwucR-23">
          <mxGeometry relative="1" as="geometry" />
        </mxCell>
        <mxCell id="euQNAumdBL3FPEThwucR-9" value="update数据库" style="rounded=0;whiteSpace=wrap;html=1;" vertex="1" parent="1">
          <mxGeometry x="620" y="870" width="120" height="60" as="geometry" />
        </mxCell>
        <mxCell id="euQNAumdBL3FPEThwucR-37" value="" style="edgeStyle=orthogonalEdgeStyle;rounded=0;orthogonalLoop=1;jettySize=auto;html=1;" edge="1" parent="1" source="euQNAumdBL3FPEThwucR-10" target="euQNAumdBL3FPEThwucR-11">
          <mxGeometry relative="1" as="geometry" />
        </mxCell>
        <mxCell id="euQNAumdBL3FPEThwucR-10" value="删除任务" style="rounded=0;whiteSpace=wrap;html=1;" vertex="1" parent="1">
          <mxGeometry x="1060" y="170" width="120" height="60" as="geometry" />
        </mxCell>
        <mxCell id="euQNAumdBL3FPEThwucR-11" value="软删数据库" style="rounded=0;whiteSpace=wrap;html=1;" vertex="1" parent="1">
          <mxGeometry x="1060" y="290" width="120" height="60" as="geometry" />
        </mxCell>
        <mxCell id="euQNAumdBL3FPEThwucR-39" style="edgeStyle=orthogonalEdgeStyle;rounded=0;orthogonalLoop=1;jettySize=auto;html=1;entryX=0.5;entryY=0;entryDx=0;entryDy=0;" edge="1" parent="1" source="euQNAumdBL3FPEThwucR-12" target="euQNAumdBL3FPEThwucR-13">
          <mxGeometry relative="1" as="geometry" />
        </mxCell>
        <mxCell id="euQNAumdBL3FPEThwucR-12" value="定时任务" style="rounded=0;whiteSpace=wrap;html=1;" vertex="1" parent="1">
          <mxGeometry x="966" y="510" width="120" height="60" as="geometry" />
        </mxCell>
        <mxCell id="euQNAumdBL3FPEThwucR-40" value="" style="edgeStyle=orthogonalEdgeStyle;rounded=0;orthogonalLoop=1;jettySize=auto;html=1;" edge="1" parent="1" source="euQNAumdBL3FPEThwucR-13" target="euQNAumdBL3FPEThwucR-14">
          <mxGeometry relative="1" as="geometry" />
        </mxCell>
        <mxCell id="euQNAumdBL3FPEThwucR-13" value="从数据库获取当前需要执行的数据" style="rounded=0;whiteSpace=wrap;html=1;" vertex="1" parent="1">
          <mxGeometry x="966" y="640" width="120" height="60" as="geometry" />
        </mxCell>
        <mxCell id="euQNAumdBL3FPEThwucR-41" value="" style="edgeStyle=orthogonalEdgeStyle;rounded=0;orthogonalLoop=1;jettySize=auto;html=1;" edge="1" parent="1" source="euQNAumdBL3FPEThwucR-14" target="euQNAumdBL3FPEThwucR-15">
          <mxGeometry relative="1" as="geometry" />
        </mxCell>
        <mxCell id="euQNAumdBL3FPEThwucR-14" value="循环列表" style="rounded=0;whiteSpace=wrap;html=1;" vertex="1" parent="1">
          <mxGeometry x="966" y="770" width="120" height="60" as="geometry" />
        </mxCell>
        <mxCell id="euQNAumdBL3FPEThwucR-42" value="" style="edgeStyle=orthogonalEdgeStyle;rounded=0;orthogonalLoop=1;jettySize=auto;html=1;" edge="1" parent="1" source="euQNAumdBL3FPEThwucR-15" target="euQNAumdBL3FPEThwucR-16">
          <mxGeometry relative="1" as="geometry" />
        </mxCell>
        <mxCell id="euQNAumdBL3FPEThwucR-15" value="根据id获取redis锁" style="rounded=0;whiteSpace=wrap;html=1;" vertex="1" parent="1">
          <mxGeometry x="966" y="880" width="120" height="60" as="geometry" />
        </mxCell>
        <mxCell id="euQNAumdBL3FPEThwucR-43" value="" style="edgeStyle=orthogonalEdgeStyle;rounded=0;orthogonalLoop=1;jettySize=auto;html=1;" edge="1" parent="1" source="euQNAumdBL3FPEThwucR-16" target="euQNAumdBL3FPEThwucR-17">
          <mxGeometry relative="1" as="geometry" />
        </mxCell>
        <mxCell id="euQNAumdBL3FPEThwucR-16" value="发送" style="rounded=0;whiteSpace=wrap;html=1;" vertex="1" parent="1">
          <mxGeometry x="966" y="980" width="120" height="60" as="geometry" />
        </mxCell>
        <mxCell id="euQNAumdBL3FPEThwucR-18" style="edgeStyle=orthogonalEdgeStyle;rounded=0;orthogonalLoop=1;jettySize=auto;html=1;entryX=1;entryY=0.5;entryDx=0;entryDy=0;" edge="1" parent="1" source="euQNAumdBL3FPEThwucR-17" target="euQNAumdBL3FPEThwucR-14">
          <mxGeometry relative="1" as="geometry">
            <Array as="points">
              <mxPoint x="1176" y="1120" />
              <mxPoint x="1176" y="800" />
            </Array>
          </mxGeometry>
        </mxCell>
        <mxCell id="euQNAumdBL3FPEThwucR-17" value="访问回调地址" style="rounded=0;whiteSpace=wrap;html=1;" vertex="1" parent="1">
          <mxGeometry x="966" y="1080" width="120" height="60" as="geometry" />
        </mxCell>
        <mxCell id="euQNAumdBL3FPEThwucR-32" style="edgeStyle=orthogonalEdgeStyle;rounded=0;orthogonalLoop=1;jettySize=auto;html=1;entryX=0.5;entryY=0;entryDx=0;entryDy=0;" edge="1" parent="1" source="euQNAumdBL3FPEThwucR-19" target="euQNAumdBL3FPEThwucR-21">
          <mxGeometry relative="1" as="geometry" />
        </mxCell>
        <mxCell id="euQNAumdBL3FPEThwucR-45" value="" style="edgeStyle=orthogonalEdgeStyle;rounded=0;orthogonalLoop=1;jettySize=auto;html=1;" edge="1" parent="1" source="euQNAumdBL3FPEThwucR-19" target="euQNAumdBL3FPEThwucR-44">
          <mxGeometry relative="1" as="geometry" />
        </mxCell>
        <mxCell id="euQNAumdBL3FPEThwucR-19" value="获取redis锁" style="rounded=0;whiteSpace=wrap;html=1;" vertex="1" parent="1">
          <mxGeometry x="620" y="630" width="120" height="60" as="geometry" />
        </mxCell>
        <mxCell id="euQNAumdBL3FPEThwucR-33" value="是" style="edgeStyle=orthogonalEdgeStyle;rounded=0;orthogonalLoop=1;jettySize=auto;html=1;entryX=0;entryY=0.5;entryDx=0;entryDy=0;" edge="1" parent="1" source="euQNAumdBL3FPEThwucR-21" target="euQNAumdBL3FPEThwucR-22">
          <mxGeometry relative="1" as="geometry" />
        </mxCell>
        <mxCell id="euQNAumdBL3FPEThwucR-34" value="否" style="edgeStyle=orthogonalEdgeStyle;rounded=0;orthogonalLoop=1;jettySize=auto;html=1;" edge="1" parent="1" source="euQNAumdBL3FPEThwucR-21" target="euQNAumdBL3FPEThwucR-9">
          <mxGeometry relative="1" as="geometry" />
        </mxCell>
        <mxCell id="euQNAumdBL3FPEThwucR-21" value="db查询是否推送" style="rhombus;whiteSpace=wrap;html=1;" vertex="1" parent="1">
          <mxGeometry x="640" y="750" width="80" height="50" as="geometry" />
        </mxCell>
        <mxCell id="euQNAumdBL3FPEThwucR-22" value="结束返回" style="rounded=0;whiteSpace=wrap;html=1;" vertex="1" parent="1">
          <mxGeometry x="780" y="745" width="120" height="60" as="geometry" />
        </mxCell>
        <mxCell id="euQNAumdBL3FPEThwucR-36" value="" style="edgeStyle=orthogonalEdgeStyle;rounded=0;orthogonalLoop=1;jettySize=auto;html=1;" edge="1" parent="1" source="euQNAumdBL3FPEThwucR-23" target="euQNAumdBL3FPEThwucR-24">
          <mxGeometry relative="1" as="geometry" />
        </mxCell>
        <mxCell id="euQNAumdBL3FPEThwucR-23" value="删除锁" style="rounded=0;whiteSpace=wrap;html=1;" vertex="1" parent="1">
          <mxGeometry x="620" y="990" width="120" height="60" as="geometry" />
        </mxCell>
        <mxCell id="euQNAumdBL3FPEThwucR-24" value="返回成功" style="rounded=0;whiteSpace=wrap;html=1;" vertex="1" parent="1">
          <mxGeometry x="620" y="1120" width="120" height="60" as="geometry" />
        </mxCell>
        <mxCell id="euQNAumdBL3FPEThwucR-25" value="直接访问推送接口" style="rounded=0;whiteSpace=wrap;html=1;" vertex="1" parent="1">
          <mxGeometry x="110" y="310" width="120" height="60" as="geometry" />
        </mxCell>
        <mxCell id="euQNAumdBL3FPEThwucR-44" value="有锁返回" style="whiteSpace=wrap;html=1;rounded=0;" vertex="1" parent="1">
          <mxGeometry x="780" y="630" width="120" height="60" as="geometry" />
        </mxCell>
      </root>
    </mxGraphModel>
  </diagram>
</mxfile>
